<?xml version="1.0" encoding="UTF-8"?><svg id="Layer_2" xmlns="http://www.w3.org/2000/svg" viewBox="0 0 138.6889 155.3834"><g id="Components"><g id="_0c972a89-f606-4bff-852d-8c9d2e311463_4"><g><path d="m90.4465,140.0633c-33.2592-1.3112-59.7482-14.1969-59.1558-28.7739.5712-14.5773,27.9911-25.3253,61.2504-24.0136,10.8537.4232,34.9947.7829,43.3726.8886,1.5869.0212,2.8562-1.2906,2.7711-2.8774-.169-3.4698-.6976-11.0441-.803-12.6098-.0635-.9943-.8678-1.756-1.8626-1.7772-7.8233-.0784-38.853,2.5326-44.8375,2.9323-.303.0202-.447-.3625-.2066-.5479,6.708-5.1736,30.3383-14.2963,39.8603-16.9617,1.1219-.3174,1.7139-1.5445,1.2058-2.6235-2.1994-4.6546-6.7695-12.1866-9.435-15.4871-.5717-.7194-1.5869-.8886-2.3911-.4443-17.1399,9.7049-35.3867,17.7083-52.7226,27.5819-.2337.1331-.4992-.1252-.3671-.3595,8.7397-15.4944,25.8081-27.7571,40.6914-39.9379.9309-.7617.9097-2.2004-.0423-2.9621-3.9564-3.1735-9.6901-7.0665-12.1655-8.6956-.6982-.4654-1.6291-.402-2.2638.1481-6.928,5.986-45.6062,39.4256-51.1689,44.2349-.1753.1515-.4316-.0361-.3458-.2513,1.905-4.7797,12.4163-29.3569,34.6947-49.8865,1.0578-.9732.7194-2.7293-.6348-3.1948C70.7491,2.6679,64.7616.7849,59.7473.0232c-.5289-.0846-1.0578.0635-1.4811.4231-38.612,33.2804-123.5375,161.4091,30.9532,154.6816.6559-.0216,1.2483-.4027,1.5657-.9732,1.1002-2.01,1.7348-7.0032,3.3005-11.1933.5078-1.3532-.1481-2.7926-1.5868-2.8346-.6982,0-1.3752-.042-2.0734-.0635h.0211Z"/><path d="m89.2358,125.6531c7.5485,0,13.6676-6.1189,13.6676-13.6673s-6.1191-13.6676-13.6676-13.6676-13.6676,6.1191-13.6676,13.6676,6.1192,13.6673,13.6676,13.6673Z"/></g></g></g></svg>