<?xml version="1.0" encoding="UTF-8"?><svg id="Layer_2" xmlns="http://www.w3.org/2000/svg" viewBox="0 0 692.6577 155.3834"><g id="Components"><g id="c76152d1-1692-46d9-9674-18009f0b7291_1"><g><path d="m90.4465,140.0633c-33.2592-1.3112-59.7482-14.1969-59.1558-28.7739.5712-14.5773,27.9911-25.3253,61.2504-24.0136,10.8537.4232,34.9947.7829,43.3726.8886,1.5869.0212,2.8562-1.2906,2.7711-2.8774-.169-3.4698-.6976-11.0441-.803-12.6098-.0635-.9943-.8678-1.756-1.8626-1.7772-7.8233-.0784-38.853,2.5326-44.8375,2.9323-.303.0202-.447-.3625-.2066-.5479,6.708-5.1736,30.3383-14.2963,39.8603-16.9617,1.1219-.3174,1.7139-1.5445,1.2058-2.6235-2.1994-4.6546-6.7695-12.1866-9.435-15.4871-.5717-.7194-1.5869-.8886-2.3911-.4443-17.1399,9.7049-35.3867,17.7083-52.7226,27.5819-.2337.1331-.4992-.1252-.3671-.3595,8.7397-15.4944,25.8081-27.7571,40.6914-39.9379.9309-.7617.9097-2.2004-.0423-2.9621-3.9564-3.1735-9.6901-7.0665-12.1655-8.6956-.6982-.4654-1.6291-.402-2.2638.1481-6.928,5.986-45.6062,39.4256-51.1689,44.2349-.1753.1515-.4316-.0361-.3458-.2513,1.905-4.7797,12.4163-29.3569,34.6947-49.8865,1.0578-.9732.7194-2.7293-.6348-3.1948C70.7491,2.6679,64.7616.7849,59.7473.0232c-.5289-.0846-1.0578.0635-1.4811.4231-38.612,33.2804-123.5375,161.4091,30.9532,154.6816.6559-.0216,1.2483-.4027,1.5657-.9732,1.1002-2.01,1.7348-7.0032,3.3005-11.1933.5078-1.3532-.1481-2.7926-1.5868-2.8346-.6982,0-1.3752-.042-2.0734-.0635h.0211Z" style="fill:#1b2231;"/><path d="m89.2358,125.6531c7.5485,0,13.6676-6.1189,13.6676-13.6673s-6.1191-13.6676-13.6676-13.6676-13.6676,6.1191-13.6676,13.6676,6.1192,13.6673,13.6676,13.6673Z" style="fill:#1b2231;"/></g><g><path d="m237.6724,59.0387h27.1018l-29.7673,29.6202,32.4341,45.6154h-26.8069l-21.0299-31.2496-7.7019,7.8495v23.4001h-22.5113V30.6032h22.5113v57.019l25.7702-28.5835Z" style="fill:#1b2231;"/><path d="m378.9739,110.5725c.4447,8.2937,6.0731,11.4034,15.1066,11.4034,5.1837,0,11.8489-2.2212,11.8489-7.9971,0-8.738-10.3675-9.7747-21.6231-11.4038-11.1082-1.6291-26.6583-5.0354-26.6583-23.2519,0-6.6646,2.8142-23.1037,34.6551-23.1037,27.2516,0,33.3235,13.4772,33.7681,23.548h-20.439c-.7395-8.738-8.8861-8.4418-11.8477-8.4418-3.851,0-12.737.4443-12.737,6.5166,0,8.886,10.6635,9.4784,18.8089,10.6632,12.8857,1.9254,29.4725,4.2949,29.4725,22.9557,0,11.4041-5.7758,25.6214-35.9891,25.6214-23.548,0-36.8772-10.5149-37.4693-26.51h23.1034Z" style="fill:#1b2231;"/><path d="m582.3222,134.2743v-9.0347h-.2961c-7.5533,8.294-13.3291,11.8489-22.8073,11.8489-21.1785,0-34.2116-16.588-34.2116-40.7281s13.1817-40.1353,34.6562-40.1353c7.5533,0,17.4762,3.7025,22.6587,10.367V30.6035h22.5124v103.6708h-22.5124Zm-16.4382-62.943c-12.5896,0-17.4761,12.2924-17.4761,25.3254,0,15.8468,6.8126,25.3253,17.4761,25.3253,9.0335,0,17.6236-6.6646,17.6236-25.3253,0-16.4393-6.3679-25.3254-17.6236-25.3254Z" style="fill:#1b2231;"/><path d="m343.7339,118.718l.4447-34.3594c0-8.738-.5921-28.1392-34.5076-28.1392-8.294,0-34.2116,1.0366-35.3958,27.1025h21.4745c0-11.1076,9.6268-11.9962,13.7738-11.9962,2.517,0,11.6991,0,12.1438,9.9228v2.0734c-.4446,7.2569-6.3679,6.0721-22.9559,8.4418-13.6252,2.3696-27.9911,6.3683-27.9911,23.548,0,6.3682,2.2221,21.7708,26.2136,21.7708,9.3308,0,19.2536-2.6656,25.1781-10.2189h.4435v7.4047h21.3271s-.2121-12.8425-.1486-15.5503Zm-21.9396-15.5505c0,15.1062-10.9596,18.8085-16.4394,18.8085-4.2944,0-11.5517-1.6288-11.5517-8.7376,0-8.4418,8.4414-10.0709,13.1805-10.8115,8.59-1.6291,8.1454-.8886,14.8106-3.9986v4.7392Z" style="fill:#1b2231;"/><path d="m511.8099,118.718l.4447-34.3594c0-8.738-.5921-28.1392-34.5076-28.1392-8.294,0-34.2116,1.0366-35.3958,27.1025h21.4745c0-11.1076,9.6268-11.9962,13.7726-11.9962,2.5181,0,11.7003,0,12.145,9.9228v2.0734c-.4447,7.2569-6.368,6.0721-22.956,8.4418-13.6252,2.3696-27.9911,6.3683-27.9911,23.548,0,6.3682,2.2221,21.7708,26.2136,21.7708,9.3308,0,19.2536-2.6656,25.1781-10.2189h.4435v7.4047h21.3271s-.2121-12.8425-.1486-15.5503Zm-21.9396-15.5505c0,15.1062-10.9596,18.8085-16.4394,18.8085-4.2944,0-11.5517-1.6288-11.5517-8.7376,0-8.4418,8.4414-10.0709,13.1805-10.8115,8.59-1.6291,8.1454-.8886,14.8106-3.9986v4.7392Z" style="fill:#1b2231;"/><path d="m692.213,118.718l.4447-34.3594c0-8.738-.5921-28.1392-34.5077-28.1392-8.294,0-34.2116,1.0366-35.3958,27.1025h21.4745c0-11.1076,9.6268-11.9962,13.7738-11.9962,2.5169,0,11.6991,0,12.1437,9.9228v2.0734c-.4446,7.2569-6.3679,6.0721-22.9559,8.4418-13.6252,2.3696-27.9911,6.3683-27.9911,23.548,0,6.3682,2.2221,21.7708,26.2136,21.7708,9.3308,0,19.2536-2.6656,25.1781-10.2189h.4435v7.4047h21.3271s-.2121-12.8425-.1486-15.5503Zm-21.9396-15.5505c0,15.1062-10.9596,18.8085-16.4394,18.8085-4.2944,0-11.5517-1.6288-11.5517-8.7376,0-8.4418,8.4415-10.0709,13.1805-10.8115,8.59-1.6291,8.1454-.8886,14.8106-3.9986v4.7392Z" style="fill:#1b2231;"/></g></g></g></svg>